<?xml version="1.0" standalone="no"?>
<!DOCTYPE svg PUBLIC "-//W3C//DTD SVG 20010904//EN"
 "http://www.w3.org/TR/2001/REC-SVG-20010904/DTD/svg10.dtd">
<svg version="1.0" xmlns="http://www.w3.org/2000/svg"
 width="309.000000pt" height="309.000000pt" viewBox="0 0 309.000000 309.000000"
 preserveAspectRatio="xMidYMid meet">
<metadata>
Created by potrace 1.14, written by Peter Selinger 2001-2017
</metadata>
<g transform="translate(0.000000,309.000000) scale(0.100000,-0.100000)"
fill="#000000" stroke="none">
<path d="M1389 3036 c-2 -2 -26 -7 -54 -10 -95 -13 -109 -16 -237 -54 -49 -14
-88 -28 -88 -31 0 -4 -8 -7 -18 -8 -24 -2 -196 -86 -236 -116 -6 -4 -44 -30
-83 -57 -40 -28 -73 -55 -73 -60 0 -6 -5 -10 -12 -10 -24 0 -198 -192 -267
-295 -127 -188 -201 -371 -240 -590 -16 -88 -19 -144 -16 -275 2 -91 6 -176 9
-190 3 -14 11 -51 16 -83 16 -84 63 -225 106 -320 21 -45 41 -84 44 -87 3 -3
16 -25 29 -50 42 -78 131 -192 220 -280 109 -108 132 -127 231 -194 180 -121
368 -192 620 -234 92 -15 387 -7 489 13 100 20 292 82 303 99 4 6 8 8 8 3 0
-7 98 42 174 87 21 12 75 50 120 84 253 190 436 452 525 752 33 108 36 124 47
199 3 25 8 57 10 71 5 31 5 276 0 310 -2 14 -7 47 -10 75 -37 294 -206 620
-438 842 -83 80 -165 141 -293 220 -118 73 -335 149 -510 179 -38 7 -370 16
-376 10z"/>
</g>
</svg>
